<?xml version="1.0" encoding="UTF-8" standalone="no"?>
<!DOCTYPE svg PUBLIC "-//W3C//DTD SVG 1.1//EN"
 "http://www.w3.org/Graphics/SVG/1.1/DTD/svg11.dtd">
<!-- Generated by graphviz version 2.46.1 (20210213.1702)
 -->
<!-- Title: Tree Pages: 1 -->
<svg width="553pt" height="433pt"
 viewBox="0.00 0.00 553.00 433.00" xmlns="http://www.w3.org/2000/svg" xmlns:xlink="http://www.w3.org/1999/xlink">
<g id="graph0" class="graph" transform="scale(1 1) rotate(0) translate(4 429)">
<title>Tree</title>
<polygon fill="white" stroke="transparent" points="-4,4 -4,-429 549,-429 549,4 -4,4"/>
<!-- 0 -->
<g id="node1" class="node">
<title>0</title>
<path fill="#ffffff" stroke="black" d="M261,-425C261,-425 130,-425 130,-425 124,-425 118,-419 118,-413 118,-413 118,-354 118,-354 118,-348 124,-342 130,-342 130,-342 261,-342 261,-342 267,-342 273,-348 273,-354 273,-354 273,-413 273,-413 273,-419 267,-425 261,-425"/>
<text text-anchor="middle" x="195.5" y="-409.8" font-family="Helvetica,sans-Serif" font-size="14.00">petal width (cm) &lt;= 0.8</text>
<text text-anchor="middle" x="195.5" y="-394.8" font-family="Helvetica,sans-Serif" font-size="14.00">entropy = 1.585</text>
<text text-anchor="middle" x="195.5" y="-379.8" font-family="Helvetica,sans-Serif" font-size="14.00">samples = 150</text>
<text text-anchor="middle" x="195.5" y="-364.8" font-family="Helvetica,sans-Serif" font-size="14.00">value = [50, 50, 50]</text>
<text text-anchor="middle" x="195.5" y="-349.8" font-family="Helvetica,sans-Serif" font-size="14.00">class = setosa</text>
</g>
<!-- 1 -->
<g id="node2" class="node">
<title>1</title>
<path fill="#e58139" stroke="black" d="M163,-298.5C163,-298.5 70,-298.5 70,-298.5 64,-298.5 58,-292.5 58,-286.5 58,-286.5 58,-242.5 58,-242.5 58,-236.5 64,-230.5 70,-230.5 70,-230.5 163,-230.5 163,-230.5 169,-230.5 175,-236.5 175,-242.5 175,-242.5 175,-286.5 175,-286.5 175,-292.5 169,-298.5 163,-298.5"/>
<text text-anchor="middle" x="116.5" y="-283.3" font-family="Helvetica,sans-Serif" font-size="14.00">entropy = 0.0</text>
<text text-anchor="middle" x="116.5" y="-268.3" font-family="Helvetica,sans-Serif" font-size="14.00">samples = 50</text>
<text text-anchor="middle" x="116.5" y="-253.3" font-family="Helvetica,sans-Serif" font-size="14.00">value = [50, 0, 0]</text>
<text text-anchor="middle" x="116.5" y="-238.3" font-family="Helvetica,sans-Serif" font-size="14.00">class = setosa</text>
</g>
<!-- 0&#45;&gt;1 -->
<g id="edge1" class="edge">
<title>0&#45;&gt;1</title>
<path fill="none" stroke="black" d="M168.09,-341.91C160.49,-330.65 152.23,-318.42 144.59,-307.11"/>
<polygon fill="black" stroke="black" points="147.39,-305 138.89,-298.67 141.59,-308.91 147.39,-305"/>
<text text-anchor="middle" x="134.14" y="-319.51" font-family="Helvetica,sans-Serif" font-size="14.00">True</text>
</g>
<!-- 2 -->
<g id="node3" class="node">
<title>2</title>
<path fill="#ffffff" stroke="black" d="M344,-306C344,-306 205,-306 205,-306 199,-306 193,-300 193,-294 193,-294 193,-235 193,-235 193,-229 199,-223 205,-223 205,-223 344,-223 344,-223 350,-223 356,-229 356,-235 356,-235 356,-294 356,-294 356,-300 350,-306 344,-306"/>
<text text-anchor="middle" x="274.5" y="-290.8" font-family="Helvetica,sans-Serif" font-size="14.00">petal width (cm) &lt;= 1.75</text>
<text text-anchor="middle" x="274.5" y="-275.8" font-family="Helvetica,sans-Serif" font-size="14.00">entropy = 1.0</text>
<text text-anchor="middle" x="274.5" y="-260.8" font-family="Helvetica,sans-Serif" font-size="14.00">samples = 100</text>
<text text-anchor="middle" x="274.5" y="-245.8" font-family="Helvetica,sans-Serif" font-size="14.00">value = [0, 50, 50]</text>
<text text-anchor="middle" x="274.5" y="-230.8" font-family="Helvetica,sans-Serif" font-size="14.00">class = versicolor</text>
</g>
<!-- 0&#45;&gt;2 -->
<g id="edge2" class="edge">
<title>0&#45;&gt;2</title>
<path fill="none" stroke="black" d="M222.91,-341.91C228.91,-333.01 235.33,-323.51 241.53,-314.33"/>
<polygon fill="black" stroke="black" points="244.44,-316.27 247.14,-306.02 238.64,-312.35 244.44,-316.27"/>
<text text-anchor="middle" x="251.9" y="-326.86" font-family="Helvetica,sans-Serif" font-size="14.00">False</text>
</g>
<!-- 3 -->
<g id="node4" class="node">
<title>3</title>
<path fill="#4de88e" stroke="black" d="M253.5,-187C253.5,-187 109.5,-187 109.5,-187 103.5,-187 97.5,-181 97.5,-175 97.5,-175 97.5,-116 97.5,-116 97.5,-110 103.5,-104 109.5,-104 109.5,-104 253.5,-104 253.5,-104 259.5,-104 265.5,-110 265.5,-116 265.5,-116 265.5,-175 265.5,-175 265.5,-181 259.5,-187 253.5,-187"/>
<text text-anchor="middle" x="181.5" y="-171.8" font-family="Helvetica,sans-Serif" font-size="14.00">petal length (cm) &lt;= 4.95</text>
<text text-anchor="middle" x="181.5" y="-156.8" font-family="Helvetica,sans-Serif" font-size="14.00">entropy = 0.445</text>
<text text-anchor="middle" x="181.5" y="-141.8" font-family="Helvetica,sans-Serif" font-size="14.00">samples = 54</text>
<text text-anchor="middle" x="181.5" y="-126.8" font-family="Helvetica,sans-Serif" font-size="14.00">value = [0, 49, 5]</text>
<text text-anchor="middle" x="181.5" y="-111.8" font-family="Helvetica,sans-Serif" font-size="14.00">class = versicolor</text>
</g>
<!-- 2&#45;&gt;3 -->
<g id="edge3" class="edge">
<title>2&#45;&gt;3</title>
<path fill="none" stroke="black" d="M242.23,-222.91C235.09,-213.92 227.46,-204.32 220.09,-195.05"/>
<polygon fill="black" stroke="black" points="222.67,-192.67 213.71,-187.02 217.19,-197.03 222.67,-192.67"/>
</g>
<!-- 4 -->
<g id="node7" class="node">
<title>4</title>
<path fill="#843de6" stroke="black" d="M439.5,-187C439.5,-187 295.5,-187 295.5,-187 289.5,-187 283.5,-181 283.5,-175 283.5,-175 283.5,-116 283.5,-116 283.5,-110 289.5,-104 295.5,-104 295.5,-104 439.5,-104 439.5,-104 445.5,-104 451.5,-110 451.5,-116 451.5,-116 451.5,-175 451.5,-175 451.5,-181 445.5,-187 439.5,-187"/>
<text text-anchor="middle" x="367.5" y="-171.8" font-family="Helvetica,sans-Serif" font-size="14.00">petal length (cm) &lt;= 4.85</text>
<text text-anchor="middle" x="367.5" y="-156.8" font-family="Helvetica,sans-Serif" font-size="14.00">entropy = 0.151</text>
<text text-anchor="middle" x="367.5" y="-141.8" font-family="Helvetica,sans-Serif" font-size="14.00">samples = 46</text>
<text text-anchor="middle" x="367.5" y="-126.8" font-family="Helvetica,sans-Serif" font-size="14.00">value = [0, 1, 45]</text>
<text text-anchor="middle" x="367.5" y="-111.8" font-family="Helvetica,sans-Serif" font-size="14.00">class = virginica</text>
</g>
<!-- 2&#45;&gt;4 -->
<g id="edge6" class="edge">
<title>2&#45;&gt;4</title>
<path fill="none" stroke="black" d="M306.77,-222.91C313.91,-213.92 321.54,-204.32 328.91,-195.05"/>
<polygon fill="black" stroke="black" points="331.81,-197.03 335.29,-187.02 326.33,-192.67 331.81,-197.03"/>
</g>
<!-- 5 -->
<g id="node5" class="node">
<title>5</title>
<path fill="#3de684" stroke="black" d="M109,-68C109,-68 12,-68 12,-68 6,-68 0,-62 0,-56 0,-56 0,-12 0,-12 0,-6 6,0 12,0 12,0 109,0 109,0 115,0 121,-6 121,-12 121,-12 121,-56 121,-56 121,-62 115,-68 109,-68"/>
<text text-anchor="middle" x="60.5" y="-52.8" font-family="Helvetica,sans-Serif" font-size="14.00">entropy = 0.146</text>
<text text-anchor="middle" x="60.5" y="-37.8" font-family="Helvetica,sans-Serif" font-size="14.00">samples = 48</text>
<text text-anchor="middle" x="60.5" y="-22.8" font-family="Helvetica,sans-Serif" font-size="14.00">value = [0, 47, 1]</text>
<text text-anchor="middle" x="60.5" y="-7.8" font-family="Helvetica,sans-Serif" font-size="14.00">class = versicolor</text>
</g>
<!-- 3&#45;&gt;5 -->
<g id="edge4" class="edge">
<title>3&#45;&gt;5</title>
<path fill="none" stroke="black" d="M136.44,-103.73C126.16,-94.42 115.25,-84.54 104.99,-75.26"/>
<polygon fill="black" stroke="black" points="107.06,-72.41 97.3,-68.3 102.36,-77.6 107.06,-72.41"/>
</g>
<!-- 6 -->
<g id="node6" class="node">
<title>6</title>
<path fill="#c09cf2" stroke="black" d="M240,-68C240,-68 151,-68 151,-68 145,-68 139,-62 139,-56 139,-56 139,-12 139,-12 139,-6 145,0 151,0 151,0 240,0 240,0 246,0 252,-6 252,-12 252,-12 252,-56 252,-56 252,-62 246,-68 240,-68"/>
<text text-anchor="middle" x="195.5" y="-52.8" font-family="Helvetica,sans-Serif" font-size="14.00">entropy = 0.918</text>
<text text-anchor="middle" x="195.5" y="-37.8" font-family="Helvetica,sans-Serif" font-size="14.00">samples = 6</text>
<text text-anchor="middle" x="195.5" y="-22.8" font-family="Helvetica,sans-Serif" font-size="14.00">value = [0, 2, 4]</text>
<text text-anchor="middle" x="195.5" y="-7.8" font-family="Helvetica,sans-Serif" font-size="14.00">class = virginica</text>
</g>
<!-- 3&#45;&gt;6 -->
<g id="edge5" class="edge">
<title>3&#45;&gt;6</title>
<path fill="none" stroke="black" d="M186.71,-103.73C187.77,-95.43 188.89,-86.67 189.97,-78.28"/>
<polygon fill="black" stroke="black" points="193.45,-78.66 191.24,-68.3 186.5,-77.77 193.45,-78.66"/>
</g>
<!-- 7 -->
<g id="node8" class="node">
<title>7</title>
<path fill="#c09cf2" stroke="black" d="M398,-68C398,-68 309,-68 309,-68 303,-68 297,-62 297,-56 297,-56 297,-12 297,-12 297,-6 303,0 309,0 309,0 398,0 398,0 404,0 410,-6 410,-12 410,-12 410,-56 410,-56 410,-62 404,-68 398,-68"/>
<text text-anchor="middle" x="353.5" y="-52.8" font-family="Helvetica,sans-Serif" font-size="14.00">entropy = 0.918</text>
<text text-anchor="middle" x="353.5" y="-37.8" font-family="Helvetica,sans-Serif" font-size="14.00">samples = 3</text>
<text text-anchor="middle" x="353.5" y="-22.8" font-family="Helvetica,sans-Serif" font-size="14.00">value = [0, 1, 2]</text>
<text text-anchor="middle" x="353.5" y="-7.8" font-family="Helvetica,sans-Serif" font-size="14.00">class = virginica</text>
</g>
<!-- 4&#45;&gt;7 -->
<g id="edge7" class="edge">
<title>4&#45;&gt;7</title>
<path fill="none" stroke="black" d="M362.29,-103.73C361.23,-95.43 360.11,-86.67 359.03,-78.28"/>
<polygon fill="black" stroke="black" points="362.5,-77.77 357.76,-68.3 355.55,-78.66 362.5,-77.77"/>
</g>
<!-- 8 -->
<g id="node9" class="node">
<title>8</title>
<path fill="#8139e5" stroke="black" d="M533,-68C533,-68 440,-68 440,-68 434,-68 428,-62 428,-56 428,-56 428,-12 428,-12 428,-6 434,0 440,0 440,0 533,0 533,0 539,0 545,-6 545,-12 545,-12 545,-56 545,-56 545,-62 539,-68 533,-68"/>
<text text-anchor="middle" x="486.5" y="-52.8" font-family="Helvetica,sans-Serif" font-size="14.00">entropy = 0.0</text>
<text text-anchor="middle" x="486.5" y="-37.8" font-family="Helvetica,sans-Serif" font-size="14.00">samples = 43</text>
<text text-anchor="middle" x="486.5" y="-22.8" font-family="Helvetica,sans-Serif" font-size="14.00">value = [0, 0, 43]</text>
<text text-anchor="middle" x="486.5" y="-7.8" font-family="Helvetica,sans-Serif" font-size="14.00">class = virginica</text>
</g>
<!-- 4&#45;&gt;8 -->
<g id="edge8" class="edge">
<title>4&#45;&gt;8</title>
<path fill="none" stroke="black" d="M411.81,-103.73C421.92,-94.42 432.66,-84.54 442.75,-75.26"/>
<polygon fill="black" stroke="black" points="445.32,-77.65 450.31,-68.3 440.58,-72.5 445.32,-77.65"/>
</g>
</g>
</svg>