<?xml version="1.0" encoding="utf-8" standalone="no"?>
<!DOCTYPE svg PUBLIC "-//W3C//DTD SVG 1.1//EN"
  "http://www.w3.org/Graphics/SVG/1.1/DTD/svg11.dtd">
<!-- Created with matplotlib (https://matplotlib.org/) -->
<svg height="288pt" version="1.1" viewBox="0 0 432 288" width="432pt" xmlns="http://www.w3.org/2000/svg" xmlns:xlink="http://www.w3.org/1999/xlink">
 <defs>
  <style type="text/css">
*{stroke-linecap:butt;stroke-linejoin:round;}
  </style>
 </defs>
 <g id="figure_1">
  <g id="patch_1">
   <path d="M 0 288 
L 432 288 
L 432 0 
L 0 0 
z
" style="fill:#ffffff;"/>
  </g>
  <g id="axes_1">
   <g id="patch_2">
    <path d="M 54 252 
L 388.8 252 
L 388.8 34.56 
L 54 34.56 
z
" style="fill:#e5e5e5;"/>
   </g>
   <g id="matplotlib.axis_1">
    <g id="xtick_1">
     <g id="line2d_1">
      <path clip-path="url(#p8bd8b551b3)" d="M 69.218182 252 
L 69.218182 34.56 
" style="fill:none;stroke:#ffffff;stroke-linecap:square;stroke-width:0.8;"/>
     </g>
     <g id="line2d_2">
      <defs>
       <path d="M 0 0 
L 0 3.5 
" id="me8d1360efa" style="stroke:#555555;stroke-width:0.8;"/>
      </defs>
      <g>
       <use style="fill:#555555;stroke:#555555;stroke-width:0.8;" x="69.218182" xlink:href="#me8d1360efa" y="252"/>
      </g>
     </g>
     <g id="text_1">
      <!-- 0.0 -->
      <defs>
       <path d="M 27.78125 71.921875 
Q 51.125 71.921875 51.125 35.296875 
Q 51.125 16.796875 45.09375 7.78125 
Q 39.0625 -1.21875 27.78125 -1.21875 
Q 4.5 -1.21875 4.5 35.296875 
Q 4.5 53.8125 10.515625 62.859375 
Q 16.546875 71.921875 27.78125 71.921875 
z
M 27.78125 6 
Q 34.859375 6 38.46875 12.859375 
Q 42.09375 19.734375 42.09375 35.296875 
Q 42.09375 46.140625 40.5 52.359375 
Q 38.921875 58.59375 35.71875 61.640625 
Q 32.515625 64.703125 27.6875 64.703125 
Q 20.609375 64.703125 17.046875 57.71875 
Q 13.484375 50.734375 13.484375 35.296875 
Q 13.484375 24.609375 15.09375 18.359375 
Q 16.703125 12.109375 19.875 9.046875 
Q 23.046875 6 27.78125 6 
z
" id="ArialUnicodeMS-48"/>
       <path d="M 18.890625 0 
L 8.890625 0 
L 8.890625 10.015625 
L 18.890625 10.015625 
z
" id="ArialUnicodeMS-46"/>
      </defs>
      <g style="fill:#555555;" transform="translate(62.268182 266.157812)scale(0.1 -0.1)">
       <use xlink:href="#ArialUnicodeMS-48"/>
       <use x="55.615234" xlink:href="#ArialUnicodeMS-46"/>
       <use x="83.398438" xlink:href="#ArialUnicodeMS-48"/>
      </g>
     </g>
    </g>
    <g id="xtick_2">
     <g id="line2d_3">
      <path clip-path="url(#p8bd8b551b3)" d="M 130.090909 252 
L 130.090909 34.56 
" style="fill:none;stroke:#ffffff;stroke-linecap:square;stroke-width:0.8;"/>
     </g>
     <g id="line2d_4">
      <g>
       <use style="fill:#555555;stroke:#555555;stroke-width:0.8;" x="130.090909" xlink:href="#me8d1360efa" y="252"/>
      </g>
     </g>
     <g id="text_2">
      <!-- 0.2 -->
      <defs>
       <path d="M 50.484375 0 
L 3.078125 0 
Q 3.078125 6.0625 7.296875 12.25 
Q 11.53125 18.453125 23.09375 27.78125 
Q 30.171875 33.453125 35.734375 39.671875 
Q 41.3125 45.90625 41.3125 52.203125 
Q 41.3125 57.625 37.46875 61.15625 
Q 33.640625 64.703125 27.78125 64.703125 
Q 21.875 64.703125 17.875 61.0625 
Q 13.875 57.421875 13.8125 50.203125 
L 4.78125 51.21875 
Q 5.609375 61.28125 11.9375 66.59375 
Q 18.265625 71.921875 27.984375 71.921875 
Q 38.53125 71.921875 44.40625 66.078125 
Q 50.296875 60.25 50.296875 52 
Q 50.296875 45.125 45.328125 38.0625 
Q 40.375 31 25.59375 19.1875 
Q 17.828125 12.984375 15.28125 8.5 
L 50.484375 8.5 
z
" id="ArialUnicodeMS-50"/>
      </defs>
      <g style="fill:#555555;" transform="translate(123.140909 266.157812)scale(0.1 -0.1)">
       <use xlink:href="#ArialUnicodeMS-48"/>
       <use x="55.615234" xlink:href="#ArialUnicodeMS-46"/>
       <use x="83.398438" xlink:href="#ArialUnicodeMS-50"/>
      </g>
     </g>
    </g>
    <g id="xtick_3">
     <g id="line2d_5">
      <path clip-path="url(#p8bd8b551b3)" d="M 190.963636 252 
L 190.963636 34.56 
" style="fill:none;stroke:#ffffff;stroke-linecap:square;stroke-width:0.8;"/>
     </g>
     <g id="line2d_6">
      <g>
       <use style="fill:#555555;stroke:#555555;stroke-width:0.8;" x="190.963636" xlink:href="#me8d1360efa" y="252"/>
      </g>
     </g>
     <g id="text_3">
      <!-- 0.4 -->
      <defs>
       <path d="M 50.984375 17.09375 
L 41.3125 17.09375 
L 41.3125 0 
L 32.515625 0 
L 32.515625 17.09375 
L 1.515625 17.09375 
L 1.515625 25.203125 
L 34.078125 71.578125 
L 41.3125 71.578125 
L 41.3125 25.203125 
L 50.984375 25.203125 
z
M 32.515625 25.203125 
L 32.515625 57.515625 
L 32.328125 57.515625 
L 10.109375 25.203125 
z
" id="ArialUnicodeMS-52"/>
      </defs>
      <g style="fill:#555555;" transform="translate(184.013636 266.157812)scale(0.1 -0.1)">
       <use xlink:href="#ArialUnicodeMS-48"/>
       <use x="55.615234" xlink:href="#ArialUnicodeMS-46"/>
       <use x="83.398438" xlink:href="#ArialUnicodeMS-52"/>
      </g>
     </g>
    </g>
    <g id="xtick_4">
     <g id="line2d_7">
      <path clip-path="url(#p8bd8b551b3)" d="M 251.836364 252 
L 251.836364 34.56 
" style="fill:none;stroke:#ffffff;stroke-linecap:square;stroke-width:0.8;"/>
     </g>
     <g id="line2d_8">
      <g>
       <use style="fill:#555555;stroke:#555555;stroke-width:0.8;" x="251.836364" xlink:href="#me8d1360efa" y="252"/>
      </g>
     </g>
     <g id="text_4">
      <!-- 0.6 -->
      <defs>
       <path d="M 13.09375 36.921875 
Q 19.140625 46.390625 30.328125 46.390625 
Q 39.109375 46.390625 45.265625 39.890625 
Q 51.421875 33.40625 51.421875 23.296875 
Q 51.421875 13.09375 45.28125 5.9375 
Q 39.15625 -1.21875 29 -1.21875 
Q 18.703125 -1.21875 11.453125 6.390625 
Q 4.203125 14.015625 4.203125 33.5 
Q 4.203125 52.640625 10.765625 62.28125 
Q 17.328125 71.921875 29.78125 71.921875 
Q 37.84375 71.921875 43.40625 67.421875 
Q 48.96875 62.9375 50.203125 54.109375 
L 41.40625 53.328125 
Q 39.015625 64.703125 29.296875 64.703125 
Q 22.5625 64.703125 17.71875 58 
Q 12.890625 51.3125 12.890625 36.921875 
z
M 28.8125 6 
Q 34.859375 6 38.625 10.875 
Q 42.390625 15.765625 42.390625 22.703125 
Q 42.390625 29.640625 38.625 34.171875 
Q 34.859375 38.71875 28.515625 38.71875 
Q 22.703125 38.71875 18.5 34.4375 
Q 14.3125 30.171875 14.3125 23.1875 
Q 14.3125 16.0625 18.4375 11.03125 
Q 22.5625 6 28.8125 6 
z
" id="ArialUnicodeMS-54"/>
      </defs>
      <g style="fill:#555555;" transform="translate(244.886364 266.157812)scale(0.1 -0.1)">
       <use xlink:href="#ArialUnicodeMS-48"/>
       <use x="55.615234" xlink:href="#ArialUnicodeMS-46"/>
       <use x="83.398438" xlink:href="#ArialUnicodeMS-54"/>
      </g>
     </g>
    </g>
    <g id="xtick_5">
     <g id="line2d_9">
      <path clip-path="url(#p8bd8b551b3)" d="M 312.709091 252 
L 312.709091 34.56 
" style="fill:none;stroke:#ffffff;stroke-linecap:square;stroke-width:0.8;"/>
     </g>
     <g id="line2d_10">
      <g>
       <use style="fill:#555555;stroke:#555555;stroke-width:0.8;" x="312.709091" xlink:href="#me8d1360efa" y="252"/>
      </g>
     </g>
     <g id="text_5">
      <!-- 0.8 -->
      <defs>
       <path d="M 37.890625 38.71875 
Q 51.3125 34.421875 51.3125 20.40625 
Q 51.3125 11.1875 44.71875 4.984375 
Q 38.140625 -1.21875 27.78125 -1.21875 
Q 17.328125 -1.21875 10.765625 5.03125 
Q 4.203125 11.28125 4.203125 20.703125 
Q 4.203125 27.484375 7.890625 32.5625 
Q 11.578125 37.640625 17.828125 38.71875 
L 17.828125 38.921875 
Q 7.078125 42.234375 7.078125 53.421875 
Q 7.078125 61.328125 12.734375 66.625 
Q 18.40625 71.921875 27.59375 71.921875 
Q 36.921875 71.921875 42.65625 66.453125 
Q 48.390625 60.984375 48.390625 53.21875 
Q 48.390625 42.671875 37.890625 38.921875 
z
M 27.78125 42.1875 
Q 32.71875 42.1875 36.0625 45.328125 
Q 39.40625 48.484375 39.40625 53.21875 
Q 39.40625 58.0625 36.015625 61.375 
Q 32.625 64.703125 27.6875 64.703125 
Q 22.65625 64.703125 19.375 61.421875 
Q 16.109375 58.15625 16.109375 53.71875 
Q 16.109375 48.390625 19.484375 45.28125 
Q 22.859375 42.1875 27.78125 42.1875 
z
M 27.78125 6 
Q 33.984375 6 38.125 10 
Q 42.28125 14.015625 42.28125 20.40625 
Q 42.28125 26.8125 38 30.90625 
Q 33.734375 35.015625 27.59375 35.015625 
Q 21.1875 35.015625 17.1875 30.78125 
Q 13.1875 26.5625 13.1875 20.609375 
Q 13.1875 14.40625 17.3125 10.203125 
Q 21.4375 6 27.78125 6 
z
" id="ArialUnicodeMS-56"/>
      </defs>
      <g style="fill:#555555;" transform="translate(305.759091 266.157812)scale(0.1 -0.1)">
       <use xlink:href="#ArialUnicodeMS-48"/>
       <use x="55.615234" xlink:href="#ArialUnicodeMS-46"/>
       <use x="83.398438" xlink:href="#ArialUnicodeMS-56"/>
      </g>
     </g>
    </g>
    <g id="xtick_6">
     <g id="line2d_11">
      <path clip-path="url(#p8bd8b551b3)" d="M 373.581818 252 
L 373.581818 34.56 
" style="fill:none;stroke:#ffffff;stroke-linecap:square;stroke-width:0.8;"/>
     </g>
     <g id="line2d_12">
      <g>
       <use style="fill:#555555;stroke:#555555;stroke-width:0.8;" x="373.581818" xlink:href="#me8d1360efa" y="252"/>
      </g>
     </g>
     <g id="text_6">
      <!-- 1.0 -->
      <defs>
       <path d="M 37.5 0 
L 28.71875 0 
L 28.71875 56 
Q 22.125 49.75 11.078125 45.40625 
L 11.078125 53.90625 
Q 26.265625 61.1875 31.78125 71.921875 
L 37.5 71.921875 
z
" id="ArialUnicodeMS-49"/>
      </defs>
      <g style="fill:#555555;" transform="translate(366.631818 266.157812)scale(0.1 -0.1)">
       <use xlink:href="#ArialUnicodeMS-49"/>
       <use x="55.615234" xlink:href="#ArialUnicodeMS-46"/>
       <use x="83.398438" xlink:href="#ArialUnicodeMS-48"/>
      </g>
     </g>
    </g>
    <g id="text_7">
     <!-- x -->
     <defs>
      <path d="M 49.3125 0 
L 38.484375 0 
L 25 20.515625 
L 11.375 0 
L 0.6875 0 
L 19.671875 27 
L 2.203125 51.8125 
L 13.09375 51.8125 
Q 23.734375 35.75 24.703125 33.890625 
L 37.40625 51.8125 
L 47.90625 51.8125 
L 29.984375 27.484375 
z
" id="ArialUnicodeMS-120"/>
     </defs>
     <g style="fill:#555555;" transform="translate(218.4 280.739375)scale(0.12 -0.12)">
      <use xlink:href="#ArialUnicodeMS-120"/>
     </g>
    </g>
   </g>
   <g id="matplotlib.axis_2">
    <g id="ytick_1">
     <g id="line2d_13">
      <path clip-path="url(#p8bd8b551b3)" d="M 54 237.186626 
L 388.8 237.186626 
" style="fill:none;stroke:#ffffff;stroke-linecap:square;stroke-width:0.8;"/>
     </g>
     <g id="line2d_14">
      <defs>
       <path d="M 0 0 
L -3.5 0 
" id="mafa452f54b" style="stroke:#555555;stroke-width:0.8;"/>
      </defs>
      <g>
       <use style="fill:#555555;stroke:#555555;stroke-width:0.8;" x="54" xlink:href="#mafa452f54b" y="237.186626"/>
      </g>
     </g>
     <g id="text_8">
      <!-- 0.50 -->
      <defs>
       <path d="M 15.828125 43.015625 
Q 22.359375 47.515625 29.390625 47.515625 
Q 38.328125 47.515625 44.96875 41.1875 
Q 51.609375 34.859375 51.609375 24.3125 
Q 51.609375 13.671875 44.875 6.21875 
Q 38.140625 -1.21875 27.203125 -1.21875 
Q 18.265625 -1.21875 11.71875 3.828125 
Q 5.171875 8.890625 4.203125 18.796875 
L 13.375 19.484375 
Q 14.5 12.703125 18.15625 9.34375 
Q 21.828125 6 27.203125 6 
Q 33.890625 6 38.03125 11.046875 
Q 42.1875 16.109375 42.1875 23.484375 
Q 42.1875 31 37.9375 35.34375 
Q 33.6875 39.703125 27 39.703125 
Q 18.5625 39.703125 14.015625 32.8125 
L 5.71875 33.796875 
L 12.703125 70.609375 
L 48.1875 70.609375 
L 48.1875 62.109375 
L 19.671875 62.109375 
z
" id="ArialUnicodeMS-53"/>
      </defs>
      <g style="fill:#555555;" transform="translate(27.539062 240.765532)scale(0.1 -0.1)">
       <use xlink:href="#ArialUnicodeMS-48"/>
       <use x="55.615234" xlink:href="#ArialUnicodeMS-46"/>
       <use x="83.398438" xlink:href="#ArialUnicodeMS-53"/>
       <use x="139.013672" xlink:href="#ArialUnicodeMS-48"/>
      </g>
     </g>
    </g>
    <g id="ytick_2">
     <g id="line2d_15">
      <path clip-path="url(#p8bd8b551b3)" d="M 54 189.34492 
L 388.8 189.34492 
" style="fill:none;stroke:#ffffff;stroke-linecap:square;stroke-width:0.8;"/>
     </g>
     <g id="line2d_16">
      <g>
       <use style="fill:#555555;stroke:#555555;stroke-width:0.8;" x="54" xlink:href="#mafa452f54b" y="189.34492"/>
      </g>
     </g>
     <g id="text_9">
      <!-- 0.55 -->
      <g style="fill:#555555;" transform="translate(27.539062 192.923827)scale(0.1 -0.1)">
       <use xlink:href="#ArialUnicodeMS-48"/>
       <use x="55.615234" xlink:href="#ArialUnicodeMS-46"/>
       <use x="83.398438" xlink:href="#ArialUnicodeMS-53"/>
       <use x="139.013672" xlink:href="#ArialUnicodeMS-53"/>
      </g>
     </g>
    </g>
    <g id="ytick_3">
     <g id="line2d_17">
      <path clip-path="url(#p8bd8b551b3)" d="M 54 141.503215 
L 388.8 141.503215 
" style="fill:none;stroke:#ffffff;stroke-linecap:square;stroke-width:0.8;"/>
     </g>
     <g id="line2d_18">
      <g>
       <use style="fill:#555555;stroke:#555555;stroke-width:0.8;" x="54" xlink:href="#mafa452f54b" y="141.503215"/>
      </g>
     </g>
     <g id="text_10">
      <!-- 0.60 -->
      <g style="fill:#555555;" transform="translate(27.539062 145.082121)scale(0.1 -0.1)">
       <use xlink:href="#ArialUnicodeMS-48"/>
       <use x="55.615234" xlink:href="#ArialUnicodeMS-46"/>
       <use x="83.398438" xlink:href="#ArialUnicodeMS-54"/>
       <use x="139.013672" xlink:href="#ArialUnicodeMS-48"/>
      </g>
     </g>
    </g>
    <g id="ytick_4">
     <g id="line2d_19">
      <path clip-path="url(#p8bd8b551b3)" d="M 54 93.661509 
L 388.8 93.661509 
" style="fill:none;stroke:#ffffff;stroke-linecap:square;stroke-width:0.8;"/>
     </g>
     <g id="line2d_20">
      <g>
       <use style="fill:#555555;stroke:#555555;stroke-width:0.8;" x="54" xlink:href="#mafa452f54b" y="93.661509"/>
      </g>
     </g>
     <g id="text_11">
      <!-- 0.65 -->
      <g style="fill:#555555;" transform="translate(27.539062 97.240416)scale(0.1 -0.1)">
       <use xlink:href="#ArialUnicodeMS-48"/>
       <use x="55.615234" xlink:href="#ArialUnicodeMS-46"/>
       <use x="83.398438" xlink:href="#ArialUnicodeMS-54"/>
       <use x="139.013672" xlink:href="#ArialUnicodeMS-53"/>
      </g>
     </g>
    </g>
    <g id="ytick_5">
     <g id="line2d_21">
      <path clip-path="url(#p8bd8b551b3)" d="M 54 45.819804 
L 388.8 45.819804 
" style="fill:none;stroke:#ffffff;stroke-linecap:square;stroke-width:0.8;"/>
     </g>
     <g id="line2d_22">
      <g>
       <use style="fill:#555555;stroke:#555555;stroke-width:0.8;" x="54" xlink:href="#mafa452f54b" y="45.819804"/>
      </g>
     </g>
     <g id="text_12">
      <!-- 0.70 -->
      <defs>
       <path d="M 51.125 63.8125 
Q 40.578125 52.25 32.859375 35.203125 
Q 25.140625 18.171875 23.78125 0 
L 14.796875 0 
Q 15.140625 14.59375 22 32.046875 
Q 28.859375 49.515625 39.796875 62.109375 
L 4.78125 62.109375 
L 4.78125 70.609375 
L 51.125 70.609375 
z
" id="ArialUnicodeMS-55"/>
      </defs>
      <g style="fill:#555555;" transform="translate(27.539062 49.39871)scale(0.1 -0.1)">
       <use xlink:href="#ArialUnicodeMS-48"/>
       <use x="55.615234" xlink:href="#ArialUnicodeMS-46"/>
       <use x="83.398438" xlink:href="#ArialUnicodeMS-55"/>
       <use x="139.013672" xlink:href="#ArialUnicodeMS-48"/>
      </g>
     </g>
    </g>
    <g id="text_13">
     <!-- y -->
     <defs>
      <path d="M 49.21875 51.8125 
L 29.390625 -0.875 
Q 29.34375 -0.984375 29.296875 -1.21875 
Q 26.46875 -10.015625 22.671875 -15.5 
Q 18.890625 -21 11.921875 -21 
Q 9.578125 -21 6.203125 -20.015625 
L 5.328125 -11.71875 
Q 7.859375 -12.5 10.296875 -12.5 
Q 15.1875 -12.5 17.0625 -9.8125 
Q 18.953125 -7.125 21.296875 -0.09375 
L 1.609375 51.8125 
L 11.078125 51.8125 
L 23.296875 17.875 
Q 24.359375 14.75 25.59375 9.8125 
L 25.78125 9.8125 
Q 27 15.484375 28.90625 20.609375 
L 40.28125 51.8125 
z
" id="ArialUnicodeMS-121"/>
     </defs>
     <g style="fill:#555555;" transform="translate(21.019063 146.28)rotate(-90)scale(0.12 -0.12)">
      <use xlink:href="#ArialUnicodeMS-121"/>
     </g>
    </g>
   </g>
   <g id="PathCollection_1">
    <defs>
     <path d="M 0 3 
C 0.795609 3 1.55874 2.683901 2.12132 2.12132 
C 2.683901 1.55874 3 0.795609 3 0 
C 3 -0.795609 2.683901 -1.55874 2.12132 -2.12132 
C 1.55874 -2.683901 0.795609 -3 0 -3 
C -0.795609 -3 -1.55874 -2.683901 -2.12132 -2.12132 
C -2.683901 -1.55874 -3 -0.795609 -3 0 
C -3 0.795609 -2.683901 1.55874 -2.12132 2.12132 
C -1.55874 2.683901 -0.795609 3 0 3 
z
" id="m5ab2385037" style="stroke:#0000ff;stroke-width:0.5;"/>
    </defs>
    <g clip-path="url(#p8bd8b551b3)">
     <use style="fill:#0000ff;stroke:#0000ff;stroke-width:0.5;" x="210.261345" xlink:href="#m5ab2385037" y="171.673415"/>
     <use style="fill:#0000ff;stroke:#0000ff;stroke-width:0.5;" x="142.831738" xlink:href="#m5ab2385037" y="186.029308"/>
     <use style="fill:#0000ff;stroke:#0000ff;stroke-width:0.5;" x="206.590752" xlink:href="#m5ab2385037" y="174.50982"/>
     <use style="fill:#0000ff;stroke:#0000ff;stroke-width:0.5;" x="304.453247" xlink:href="#m5ab2385037" y="111.315916"/>
     <use style="fill:#0000ff;stroke:#0000ff;stroke-width:0.5;" x="84.843959" xlink:href="#m5ab2385037" y="242.116364"/>
     <use style="fill:#0000ff;stroke:#0000ff;stroke-width:0.5;" x="326.152212" xlink:href="#m5ab2385037" y="63.026957"/>
     <use style="fill:#0000ff;stroke:#0000ff;stroke-width:0.5;" x="118.291649" xlink:href="#m5ab2385037" y="211.178721"/>
     <use style="fill:#0000ff;stroke:#0000ff;stroke-width:0.5;" x="279.985231" xlink:href="#m5ab2385037" y="93.588566"/>
     <use style="fill:#0000ff;stroke:#0000ff;stroke-width:0.5;" x="95.197793" xlink:href="#m5ab2385037" y="200.214391"/>
     <use style="fill:#0000ff;stroke:#0000ff;stroke-width:0.5;" x="272.889424" xlink:href="#m5ab2385037" y="125.839785"/>
     <use style="fill:#0000ff;stroke:#0000ff;stroke-width:0.5;" x="168.457952" xlink:href="#m5ab2385037" y="157.038718"/>
     <use style="fill:#0000ff;stroke:#0000ff;stroke-width:0.5;" x="126.718018" xlink:href="#m5ab2385037" y="222.472308"/>
     <use style="fill:#0000ff;stroke:#0000ff;stroke-width:0.5;" x="173.921833" xlink:href="#m5ab2385037" y="162.897642"/>
     <use style="fill:#0000ff;stroke:#0000ff;stroke-width:0.5;" x="192.529459" xlink:href="#m5ab2385037" y="167.162088"/>
     <use style="fill:#0000ff;stroke:#0000ff;stroke-width:0.5;" x="171.20446" xlink:href="#m5ab2385037" y="152.381443"/>
     <use style="fill:#0000ff;stroke:#0000ff;stroke-width:0.5;" x="263.253311" xlink:href="#m5ab2385037" y="98.274916"/>
     <use style="fill:#0000ff;stroke:#0000ff;stroke-width:0.5;" x="179.151056" xlink:href="#m5ab2385037" y="141.829944"/>
     <use style="fill:#0000ff;stroke:#0000ff;stroke-width:0.5;" x="181.014755" xlink:href="#m5ab2385037" y="156.947293"/>
     <use style="fill:#0000ff;stroke:#0000ff;stroke-width:0.5;" x="347.993299" xlink:href="#m5ab2385037" y="73.410493"/>
     <use style="fill:#0000ff;stroke:#0000ff;stroke-width:0.5;" x="234.676556" xlink:href="#m5ab2385037" y="112.372653"/>
     <use style="fill:#0000ff;stroke:#0000ff;stroke-width:0.5;" x="95.809067" xlink:href="#m5ab2385037" y="224.363844"/>
     <use style="fill:#0000ff;stroke:#0000ff;stroke-width:0.5;" x="249.268172" xlink:href="#m5ab2385037" y="142.250487"/>
     <use style="fill:#0000ff;stroke:#0000ff;stroke-width:0.5;" x="146.902902" xlink:href="#m5ab2385037" y="208.468624"/>
     <use style="fill:#0000ff;stroke:#0000ff;stroke-width:0.5;" x="157.324234" xlink:href="#m5ab2385037" y="188.126272"/>
     <use style="fill:#0000ff;stroke:#0000ff;stroke-width:0.5;" x="146.830522" xlink:href="#m5ab2385037" y="192.847065"/>
     <use style="fill:#0000ff;stroke:#0000ff;stroke-width:0.5;" x="300.161995" xlink:href="#m5ab2385037" y="88.776656"/>
     <use style="fill:#0000ff;stroke:#0000ff;stroke-width:0.5;" x="294.586748" xlink:href="#m5ab2385037" y="93.060616"/>
     <use style="fill:#0000ff;stroke:#0000ff;stroke-width:0.5;" x="273.119447" xlink:href="#m5ab2385037" y="95.759116"/>
     <use style="fill:#0000ff;stroke:#0000ff;stroke-width:0.5;" x="212.004004" xlink:href="#m5ab2385037" y="119.844297"/>
     <use style="fill:#0000ff;stroke:#0000ff;stroke-width:0.5;" x="112.221749" xlink:href="#m5ab2385037" y="210.673424"/>
    </g>
   </g>
   <g id="line2d_23">
    <path clip-path="url(#p8bd8b551b3)" d="M 69.218182 237.24067 
L 72.292562 235.293225 
L 75.366942 233.34578 
L 78.441322 231.398335 
L 81.515702 229.450891 
L 84.590083 227.503446 
L 87.664463 225.556001 
L 90.738843 223.608556 
L 93.813223 221.661111 
L 96.887603 219.713667 
L 99.961983 217.766222 
L 103.036364 215.818777 
L 106.110744 213.871332 
L 109.185124 211.923888 
L 112.259504 209.976443 
L 115.333884 208.028998 
L 118.408264 206.081553 
L 121.482645 204.134108 
L 124.557025 202.186664 
L 127.631405 200.239219 
L 130.705785 198.291774 
L 133.780165 196.344329 
L 136.854545 194.396885 
L 139.928926 192.44944 
L 143.003306 190.501995 
L 146.077686 188.55455 
L 149.152066 186.607105 
L 152.226446 184.659661 
L 155.300826 182.712216 
L 158.375207 180.764771 
L 161.449587 178.817326 
L 164.523967 176.869882 
L 167.598347 174.922437 
L 170.672727 172.974992 
L 173.747107 171.027547 
L 176.821488 169.080102 
L 179.895868 167.132658 
L 182.970248 165.185213 
L 186.044628 163.237768 
L 189.119008 161.290323 
L 192.193388 159.342878 
L 195.267769 157.395434 
L 198.342149 155.447989 
L 201.416529 153.500544 
L 204.490909 151.553099 
L 207.565289 149.605655 
L 210.639669 147.65821 
L 213.71405 145.710765 
L 216.78843 143.76332 
L 219.86281 141.815875 
L 222.93719 139.868431 
L 226.01157 137.920986 
L 229.08595 135.973541 
L 232.160331 134.026096 
L 235.234711 132.078652 
L 238.309091 130.131207 
L 241.383471 128.183762 
L 244.457851 126.236317 
L 247.532231 124.288872 
L 250.606612 122.341428 
L 253.680992 120.393983 
L 256.755372 118.446538 
L 259.829752 116.499093 
L 262.904132 114.551649 
L 265.978512 112.604204 
L 269.052893 110.656759 
L 272.127273 108.709314 
L 275.201653 106.761869 
L 278.276033 104.814425 
L 281.350413 102.86698 
L 284.424793 100.919535 
L 287.499174 98.97209 
L 290.573554 97.024645 
L 293.647934 95.077201 
L 296.722314 93.129756 
L 299.796694 91.182311 
L 302.871074 89.234866 
L 305.945455 87.287422 
L 309.019835 85.339977 
L 312.094215 83.392532 
L 315.168595 81.445087 
L 318.242975 79.497642 
L 321.317355 77.550198 
L 324.391736 75.602753 
L 327.466116 73.655308 
L 330.540496 71.707863 
L 333.614876 69.760419 
L 336.689256 67.812974 
L 339.763636 65.865529 
L 342.838017 63.918084 
L 345.912397 61.970639 
L 348.986777 60.023195 
L 352.061157 58.07575 
L 355.135537 56.128305 
L 358.209917 54.18086 
L 361.284298 52.233415 
L 364.358678 50.285971 
L 367.433058 48.338526 
L 370.507438 46.391081 
L 373.581818 44.443636 
" style="fill:none;stroke:#008000;stroke-linecap:square;stroke-width:1.5;"/>
   </g>
   <g id="patch_3">
    <path d="M 54 252 
L 54 34.56 
" style="fill:none;stroke:#ffffff;stroke-linecap:square;stroke-linejoin:miter;"/>
   </g>
   <g id="patch_4">
    <path d="M 388.8 252 
L 388.8 34.56 
" style="fill:none;stroke:#ffffff;stroke-linecap:square;stroke-linejoin:miter;"/>
   </g>
   <g id="patch_5">
    <path d="M 54 252 
L 388.8 252 
" style="fill:none;stroke:#ffffff;stroke-linecap:square;stroke-linejoin:miter;"/>
   </g>
   <g id="patch_6">
    <path d="M 54 34.56 
L 388.8 34.56 
" style="fill:none;stroke:#ffffff;stroke-linecap:square;stroke-linejoin:miter;"/>
   </g>
   <g id="legend_1">
    <g id="patch_7">
     <path d="M 61 70.967813 
L 166.920313 70.967813 
Q 168.920313 70.967813 168.920313 68.967813 
L 168.920313 41.56 
Q 168.920313 39.56 166.920313 39.56 
L 61 39.56 
Q 59 39.56 59 41.56 
L 59 68.967813 
Q 59 70.967813 61 70.967813 
z
" style="fill:#e5e5e5;opacity:0.8;stroke:#cccccc;stroke-linejoin:miter;stroke-width:0.5;"/>
    </g>
    <g id="line2d_24">
     <path d="M 63 47.217813 
L 83 47.217813 
" style="fill:none;stroke:#008000;stroke-linecap:square;stroke-width:1.5;"/>
    </g>
    <g id="line2d_25"/>
    <g id="text_14">
     <!-- linear regression -->
     <defs>
      <path d="M 15.484375 0 
L 6.6875 0 
L 6.6875 71.578125 
L 15.484375 71.578125 
z
" id="ArialUnicodeMS-108"/>
      <path d="M 15.484375 0 
L 6.6875 0 
L 6.6875 51.8125 
L 15.484375 51.8125 
z
M 15.484375 61.625 
L 6.6875 61.625 
L 6.6875 71.578125 
L 15.484375 71.578125 
z
" id="ArialUnicodeMS-105"/>
      <path d="M 49.03125 0 
L 40.1875 0 
L 40.1875 31.5 
Q 40.1875 39.453125 37.328125 42.421875 
Q 34.46875 45.40625 29.390625 45.40625 
Q 25.484375 45.40625 21.984375 43.5 
Q 18.5 41.609375 17.03125 38.140625 
Q 15.578125 34.671875 15.578125 28.328125 
L 15.578125 0 
L 6.78125 0 
L 6.78125 51.8125 
L 14.703125 51.8125 
L 14.703125 44.484375 
L 14.890625 44.484375 
Q 17.671875 48.734375 21.75 50.859375 
Q 25.828125 52.984375 31.203125 52.984375 
Q 35.296875 52.984375 39.296875 51.515625 
Q 43.3125 50.046875 45.578125 47.109375 
Q 47.859375 44.1875 48.4375 40.859375 
Q 49.03125 37.546875 49.03125 31.890625 
z
" id="ArialUnicodeMS-110"/>
      <path d="M 51.703125 23.6875 
L 12.890625 23.6875 
Q 13.421875 15.09375 17.796875 10.546875 
Q 22.171875 6 28.71875 6 
Q 33.734375 6 37.15625 8.65625 
Q 40.578125 11.328125 42.390625 16.703125 
L 51.421875 15.578125 
Q 49.21875 7.46875 43.359375 3.125 
Q 37.5 -1.21875 28.71875 -1.21875 
Q 17.046875 -1.21875 10.46875 5.9375 
Q 3.90625 13.09375 3.90625 25.484375 
Q 3.90625 37.75 10.28125 45.359375 
Q 16.65625 52.984375 28.21875 52.984375 
Q 33.890625 52.984375 39.140625 50.484375 
Q 44.390625 48 48.046875 42.015625 
Q 51.703125 36.03125 51.703125 23.6875 
z
M 42.671875 30.90625 
Q 42.140625 38.8125 37.765625 42.296875 
Q 33.40625 45.796875 28.21875 45.796875 
Q 22.015625 45.796875 18.015625 41.640625 
Q 14.015625 37.5 13.375 30.90625 
z
" id="ArialUnicodeMS-101"/>
      <path d="M 51.609375 0 
L 42.390625 0 
Q 41.109375 2.4375 40.578125 6.390625 
Q 31.734375 -1.21875 21.484375 -1.21875 
Q 13.28125 -1.21875 8.546875 2.875 
Q 3.8125 6.984375 3.8125 13.71875 
Q 3.8125 20.171875 8.375 24.34375 
Q 12.9375 28.515625 24.21875 29.890625 
L 32.421875 31.109375 
Q 37.015625 31.84375 39.984375 32.90625 
Q 39.984375 36.859375 39.734375 38.5 
Q 39.5 40.140625 38.296875 41.890625 
Q 37.109375 43.65625 34.46875 44.71875 
Q 31.84375 45.796875 27.390625 45.796875 
Q 21.734375 45.796875 18.4375 43.703125 
Q 15.140625 41.609375 13.921875 35.890625 
L 5.328125 37.015625 
Q 6.734375 44.96875 12.59375 48.96875 
Q 18.453125 52.984375 28.71875 52.984375 
Q 38.03125 52.984375 42.40625 50.21875 
Q 46.78125 47.46875 47.78125 43.5625 
Q 48.78125 39.65625 48.78125 33.5 
L 48.78125 21.6875 
Q 48.78125 10.890625 49.1875 7.203125 
Q 49.609375 3.515625 51.609375 0 
z
M 39.984375 22.796875 
L 39.984375 25.984375 
Q 33.109375 23.6875 23.140625 22.34375 
Q 13.1875 21 13.1875 13.921875 
Q 13.1875 10.359375 15.875 8.03125 
Q 18.5625 5.71875 23.578125 5.71875 
Q 30.078125 5.71875 35.03125 9.59375 
Q 39.984375 13.484375 39.984375 22.796875 
z
" id="ArialUnicodeMS-97"/>
      <path d="M 34.625 50.203125 
L 31.59375 42.09375 
Q 28.328125 44 25.203125 44 
Q 20.265625 44 17.71875 39.578125 
Q 15.1875 35.15625 15.1875 27.203125 
L 15.1875 0 
L 6.390625 0 
L 6.390625 51.8125 
L 14.40625 51.8125 
L 14.40625 44 
L 14.59375 44 
Q 18.796875 52.984375 25.59375 52.984375 
Q 30.078125 52.984375 34.625 50.203125 
z
" id="ArialUnicodeMS-114"/>
      <path id="ArialUnicodeMS-32"/>
      <path d="M 49.125 6.984375 
Q 49.125 -4.046875 46.921875 -9.484375 
Q 44.734375 -14.9375 39.109375 -17.96875 
Q 33.5 -21 25.6875 -21 
Q 16.890625 -21 11.03125 -17.09375 
Q 5.171875 -13.1875 5.171875 -4.296875 
L 13.71875 -5.609375 
Q 14.203125 -9.71875 17.15625 -11.765625 
Q 20.125 -13.8125 25.59375 -13.8125 
Q 32.421875 -13.8125 35.59375 -11.03125 
Q 38.765625 -8.25 39.46875 -4.25 
Q 40.1875 -0.25 40.1875 6.78125 
Q 34.46875 0 25.78125 0 
Q 15.671875 0 9.546875 7.46875 
Q 3.421875 14.9375 3.421875 26.3125 
Q 3.421875 37.75 9.375 45.359375 
Q 15.328125 52.984375 25.875 52.984375 
Q 35.0625 52.984375 40.828125 45.609375 
L 41.015625 45.609375 
L 41.015625 51.8125 
L 49.125 51.8125 
z
M 26.609375 7.171875 
Q 32.234375 7.171875 36.578125 11.640625 
Q 40.921875 16.109375 40.921875 26.609375 
Q 40.921875 35.890625 36.765625 40.84375 
Q 32.625 45.796875 26.515625 45.796875 
Q 20.265625 45.796875 16.328125 40.71875 
Q 12.40625 35.640625 12.40625 26.8125 
Q 12.40625 16.609375 16.53125 11.890625 
Q 20.65625 7.171875 26.609375 7.171875 
z
" id="ArialUnicodeMS-103"/>
      <path d="M 35.59375 37.3125 
Q 35.015625 41.546875 32.15625 43.671875 
Q 29.296875 45.796875 24.21875 45.796875 
Q 19.1875 45.796875 16.078125 44.09375 
Q 12.984375 42.390625 12.984375 39.109375 
Q 12.984375 36.03125 15.453125 34.71875 
Q 17.921875 33.40625 25.203125 31.5 
Q 33.40625 29.390625 37.46875 27.78125 
Q 41.546875 26.171875 43.8125 23.265625 
Q 46.09375 20.359375 46.09375 15.1875 
Q 46.09375 8.25 40.421875 3.515625 
Q 34.765625 -1.21875 25.296875 -1.21875 
Q 15.4375 -1.21875 9.890625 2.953125 
Q 4.34375 7.125 3.078125 15.484375 
L 11.8125 16.796875 
Q 12.5 11.375 15.84375 8.6875 
Q 19.1875 6 25.203125 6 
Q 30.953125 6 34.03125 8.421875 
Q 37.109375 10.84375 37.109375 14.3125 
Q 37.109375 16.65625 35.6875 18.0625 
Q 34.28125 19.484375 32.15625 20.1875 
Q 30.03125 20.90625 22.609375 22.703125 
Q 11.578125 25.34375 8.03125 29.09375 
Q 4.5 32.859375 4.5 38.09375 
Q 4.5 44.578125 9.671875 48.78125 
Q 14.84375 52.984375 23.578125 52.984375 
Q 32.859375 52.984375 38.015625 49.34375 
Q 43.171875 45.703125 44.1875 38.484375 
z
" id="ArialUnicodeMS-115"/>
      <path d="M 27.78125 52.984375 
Q 38.28125 52.984375 45.1875 46.140625 
Q 52.09375 39.3125 52.09375 26.703125 
Q 52.09375 11.421875 44.625 5.09375 
Q 37.15625 -1.21875 27.78125 -1.21875 
Q 17.96875 -1.21875 10.734375 5.265625 
Q 3.515625 11.765625 3.515625 25.875 
Q 3.515625 39.546875 10.5 46.265625 
Q 17.484375 52.984375 27.78125 52.984375 
z
M 27.78125 6 
Q 35.296875 6 39.203125 11.5625 
Q 43.109375 17.140625 43.109375 26.21875 
Q 43.109375 35.9375 38.6875 40.859375 
Q 34.28125 45.796875 27.78125 45.796875 
Q 21.09375 45.796875 16.796875 40.796875 
Q 12.5 35.796875 12.5 25.875 
Q 12.5 16.015625 16.859375 11 
Q 21.234375 6 27.78125 6 
z
" id="ArialUnicodeMS-111"/>
     </defs>
     <g transform="translate(91 50.717813)scale(0.1 -0.1)">
      <use xlink:href="#ArialUnicodeMS-108"/>
      <use x="22.216797" xlink:href="#ArialUnicodeMS-105"/>
      <use x="44.433594" xlink:href="#ArialUnicodeMS-110"/>
      <use x="100.048828" xlink:href="#ArialUnicodeMS-101"/>
      <use x="155.664062" xlink:href="#ArialUnicodeMS-97"/>
      <use x="211.279297" xlink:href="#ArialUnicodeMS-114"/>
      <use x="244.580078" xlink:href="#ArialUnicodeMS-32"/>
      <use x="272.363281" xlink:href="#ArialUnicodeMS-114"/>
      <use x="305.664062" xlink:href="#ArialUnicodeMS-101"/>
      <use x="361.279297" xlink:href="#ArialUnicodeMS-103"/>
      <use x="416.894531" xlink:href="#ArialUnicodeMS-114"/>
      <use x="450.195312" xlink:href="#ArialUnicodeMS-101"/>
      <use x="505.810547" xlink:href="#ArialUnicodeMS-115"/>
      <use x="555.810547" xlink:href="#ArialUnicodeMS-115"/>
      <use x="605.810547" xlink:href="#ArialUnicodeMS-105"/>
      <use x="628.027344" xlink:href="#ArialUnicodeMS-111"/>
      <use x="683.642578" xlink:href="#ArialUnicodeMS-110"/>
     </g>
    </g>
    <g id="PathCollection_2">
     <g>
      <use style="fill:#0000ff;stroke:#0000ff;stroke-width:0.5;" x="73" xlink:href="#m5ab2385037" y="62.350625"/>
     </g>
    </g>
    <g id="text_15">
     <!-- samples -->
     <defs>
      <path d="M 76.90625 0 
L 68.109375 0 
L 68.109375 32.71875 
Q 68.109375 36.328125 67.625 38.890625 
Q 67.140625 41.453125 65.109375 43.421875 
Q 63.09375 45.40625 58.796875 45.40625 
Q 53.609375 45.40625 49.84375 41.796875 
Q 46.09375 38.1875 46.09375 30.078125 
L 46.09375 0 
L 37.3125 0 
L 37.3125 33.6875 
Q 37.3125 40.4375 34.9375 42.921875 
Q 32.5625 45.40625 28.21875 45.40625 
Q 22.5625 45.40625 18.921875 41.5 
Q 15.28125 37.59375 15.28125 26.90625 
L 15.28125 0 
L 6.5 0 
L 6.5 51.8125 
L 14.40625 51.8125 
L 14.40625 44.578125 
L 14.59375 44.578125 
Q 19.875 52.984375 30.078125 52.984375 
Q 35.796875 52.984375 39.484375 50.703125 
Q 43.171875 48.4375 44.828125 43.890625 
Q 50.59375 52.984375 60.796875 52.984375 
Q 68.84375 52.984375 72.875 48.625 
Q 76.90625 44.28125 76.90625 35.59375 
z
" id="ArialUnicodeMS-109"/>
      <path d="M 14.984375 45.125 
Q 19.921875 52.984375 29.78125 52.984375 
Q 39.984375 52.984375 45.890625 45.578125 
Q 51.8125 38.1875 51.8125 26.3125 
Q 51.8125 13.671875 45.265625 6.21875 
Q 38.71875 -1.21875 29.203125 -1.21875 
Q 20.84375 -1.21875 15.828125 5.421875 
L 15.578125 5.421875 
L 15.578125 -19.921875 
L 6.78125 -19.921875 
L 6.78125 51.8125 
L 14.796875 51.8125 
L 14.796875 45.125 
z
M 28.609375 6 
Q 34.765625 6 38.796875 11.109375 
Q 42.828125 16.21875 42.828125 26.3125 
Q 42.828125 35.84375 38.9375 40.96875 
Q 35.0625 46.09375 29 46.09375 
Q 22.75 46.09375 18.71875 40.375 
Q 14.703125 34.671875 14.703125 25.59375 
Q 14.703125 15.96875 18.546875 10.984375 
Q 22.40625 6 28.609375 6 
z
" id="ArialUnicodeMS-112"/>
     </defs>
     <g transform="translate(91 64.975625)scale(0.1 -0.1)">
      <use xlink:href="#ArialUnicodeMS-115"/>
      <use x="50" xlink:href="#ArialUnicodeMS-97"/>
      <use x="105.615234" xlink:href="#ArialUnicodeMS-109"/>
      <use x="188.916016" xlink:href="#ArialUnicodeMS-112"/>
      <use x="244.53125" xlink:href="#ArialUnicodeMS-108"/>
      <use x="266.748047" xlink:href="#ArialUnicodeMS-101"/>
      <use x="322.363281" xlink:href="#ArialUnicodeMS-115"/>
     </g>
    </g>
   </g>
  </g>
 </g>
 <defs>
  <clipPath id="p8bd8b551b3">
   <rect height="217.44" width="334.8" x="54" y="34.56"/>
  </clipPath>
 </defs>
</svg>
